<?xml version="1.0" standalone="no"?>
<!DOCTYPE svg PUBLIC "-//W3C//DTD SVG 20010904//EN"
 "http://www.w3.org/TR/2001/REC-SVG-20010904/DTD/svg10.dtd">
<svg version="1.0" xmlns="http://www.w3.org/2000/svg"
 width="192.000000pt" height="192.000000pt" viewBox="0 0 192.000000 192.000000"
 preserveAspectRatio="xMidYMid meet">
<metadata>
Created by potrace 1.14, written by Peter Selinger 2001-2017
</metadata>
<g transform="translate(0.000000,192.000000) scale(0.100000,-0.100000)"
fill="#000000" stroke="none">
<path d="M300 1682 c-78 -93 -123 -185 -144 -292 -12 -59 -14 -154 -12 -455 1
-209 5 -389 8 -400 3 -11 11 -40 18 -65 20 -72 76 -174 126 -228 19 -20 30
-23 88 -20 l66 3 -54 72 c-113 153 -123 205 -121 673 1 195 5 375 9 400 16 99
51 171 152 308 l16 22 -69 0 c-53 0 -72 -4 -83 -18z"/>
<path d="M1476 1688 c5 -7 27 -38 50 -68 67 -89 94 -153 110 -260 9 -59 10
-695 2 -781 -11 -112 -50 -196 -157 -340 -13 -18 -10 -19 57 -19 l71 0 46 64
c59 83 91 156 109 252 20 108 20 733 0 848 -19 106 -68 207 -144 298 -11 14
-30 18 -83 18 -52 0 -66 -3 -61 -12z"/>
<path d="M541 1590 c-4 -3 -7 -288 -7 -635 l1 -630 220 1 c266 1 311 10 372
77 61 67 65 96 61 567 l-3 405 -23 23 c-24 24 -121 44 -123 26 -1 -5 -2 -203
-3 -439 -1 -337 -5 -438 -15 -463 -21 -50 -61 -62 -207 -62 l-124 0 0 565 c0
311 -3 565 -7 566 -27 4 -136 3 -142 -1z"/>
<path d="M732 1588 c-4 -4 -6 -250 -4 -547 l2 -541 78 3 77 2 0 478 0 478 137
-3 138 -3 32 -33 33 -32 0 -433 c0 -237 -3 -444 -7 -458 -17 -69 -59 -125
-118 -156 -23 -13 -22 -13 25 -8 68 7 143 33 181 62 18 13 42 47 55 76 23 51
23 56 25 466 0 238 -3 433 -9 460 -20 93 -82 153 -187 182 -50 13 -445 20
-458 7z"/>
</g>
</svg>
